<svg width="302" height="302" viewBox="0 0 302 302" fill="none" xmlns="http://www.w3.org/2000/svg">
<defs>
<linearGradient id="g0" x1="0" y1="0" x2="1" y2="1" gradientUnits="userSpaceOnUse"><stop stop-color="#000"/><stop offset="1" stop-color="#000"/></linearGradient>
<linearGradient id="g1" x1="0" y1="0" x2="1" y2="1" gradientUnits="userSpaceOnUse"><stop stop-color="#000"/><stop offset="1" stop-color="#000"/></linearGradient>
<linearGradient id="g2" x1="0" y1="0" x2="1" y2="1" gradientUnits="userSpaceOnUse"><stop stop-color="#000"/><stop offset="1" stop-color="#000"/></linearGradient>
<linearGradient id="g3" x1="0" y1="0" x2="1" y2="1" gradientUnits="userSpaceOnUse"><stop stop-color="#000"/><stop offset="1" stop-color="#000"/></linearGradient>
<linearGradient id="g4" x1="0" y1="0" x2="1" y2="1" gradientUnits="userSpaceOnUse"><stop stop-color="#000"/><stop offset="1" stop-color="#000"/></linearGradient>
<linearGradient id="g5" x1="0" y1="0" x2="1" y2="1" gradientUnits="userSpaceOnUse"><stop stop-color="#000"/><stop offset="1" stop-color="#000"/></linearGradient>
</defs>
  <path fill-rule="evenodd" clip-rule="evenodd" d="M47.1 128.9C79.5 128.2 100.9 129.1 102.3 123.7C83.7 103.8 62.4 74.1 53.0 47.1C57.8 30.1 79.2 34.9 106.0 58.7C126.0 83.3 137.6 98.8 142.3 94.2C146.6 65.7 157.2 30.5 172.8 8.1C188.8 3.6 197.4 25.5 194.5 61.8C187.6 91.9 183.6 108.7 191.6 107.9C218.0 92.9 252.4 79.9 278.4 79.4C289.7 90.4 275.8 111.1 244.7 131.1L217.3 136.9C245.3 120.9 260.4 103.2 254.0 93.1C226.2 98.3 193.8 113.8 172.4 128.3C164.0 134.1 170.7 119.1 182.2 87.0C186.3 55.5 180.8 34.6 168.6 35.7C155.6 62.5 148.3 97.7 146.6 121.9C145.6 129.8 137.1 113.3 118.2 83.8C96.1 62.1 77.4 55.4 72.2 67.5C86.6 95.1 109.9 122.2 126.8 137.4C130.3 141.9 110.0 137.9 74.5 134.7Z" fill="url(#g0)"/>
  <path fill-rule="evenodd" clip-rule="evenodd" d="M133.9 98.4C133.7 71.7 138.1 35.5 149.3 8.9C164.5 -1.2 177.1 16.2 180.8 51.5C178.8 83.4 176.6 103.4 182.8 103.9C204.9 86.2 236.4 67.4 263.4 61.0C278.8 68.2 271.0 89.7 244.5 114.5C218.8 132.1 203.7 142.0 209.5 146.9C238.5 153.6 272.7 167.3 292.8 184.6C294.3 200.5 270.6 206.7 234.4 200.4C205.6 191.2 190.3 186.7 191.5 196.0L172.8 175.2C166.6 165.2 179.8 172.3 210.3 186.2C241.6 193.2 264.1 190.1 265.5 178.1C241.0 163.0 206.6 152.7 181.5 148.9C172.2 147.4 188.0 140.7 218.5 124.7C242.5 104.3 252.0 85.6 241.6 78.5C213.5 89.8 184.4 110.8 167.1 127.1C161.5 131.5 166.7 113.0 172.8 78.3C171.0 47.6 161.6 30.7 149.7 36.9C141.6 67.3 140.6 103.0 142.6 125.0Z" fill="url(#g1)"/>
  <path fill-rule="evenodd" clip-rule="evenodd" d="M245.6 45.9C264.1 48.2 262.2 69.0 241.4 97.4C218.1 119.8 202.4 133.3 205.8 138.0C233.5 140.0 269.4 147.4 294.1 161.0C301.3 176.7 281.6 187.5 245.6 188.0C214.5 183.4 196.0 180.2 196.3 187.2C212.8 211.5 228.8 244.6 232.2 271.3C223.0 284.8 201.6 273.9 179.1 245.0C164.0 218.4 155.7 204.0 150.3 210.9C141.0 240.3 124.4 273.0 105.7 290.5L114.3 263.9C131.2 241.8 144.6 208.5 150.6 182.9C152.9 172.1 158.0 187.0 171.1 218.1C189.4 244.3 207.8 256.6 216.5 248.1C208.3 220.0 189.9 189.1 174.4 169.7C169.2 162.8 186.0 168.9 219.5 177.8C250.8 178.9 269.8 171.3 266.1 159.1C237.4 148.4 201.8 144.2 178.6 144.5C172.1 143.7 189.1 133.3 217.3 111.7C236.5 88.0 240.4 69.7 226.9 66.7Z" fill="url(#g2)"/>
  <path fill-rule="evenodd" clip-rule="evenodd" d="M254.9 173.1C222.5 173.8 201.1 172.9 199.7 178.3C218.3 198.2 239.6 227.9 249.0 254.9C244.2 271.9 222.8 267.1 196.0 243.3C176.0 218.7 164.4 203.2 159.7 207.8C155.4 236.3 144.8 271.5 129.2 293.9C113.2 298.4 104.6 276.5 107.5 240.2C114.4 210.1 118.4 193.3 110.4 194.1C84.0 209.1 49.6 222.1 23.6 222.6C12.3 211.6 26.2 190.9 57.3 170.9L84.7 165.1C56.7 181.1 41.6 198.8 48.0 208.9C75.8 203.7 108.2 188.2 129.6 173.7C138.0 167.9 131.3 182.9 119.8 215.0C115.7 246.5 121.2 267.4 133.4 266.3C146.4 239.5 153.7 204.3 155.4 180.1C156.4 172.2 164.9 188.7 183.8 218.2C205.9 239.9 224.6 246.6 229.8 234.5C215.4 206.9 192.1 179.8 175.2 164.6C171.7 160.1 192.0 164.1 227.5 167.3Z" fill="url(#g3)"/>
  <path fill-rule="evenodd" clip-rule="evenodd" d="M168.1 203.6C168.3 230.3 163.9 266.5 152.7 293.1C137.5 303.2 124.9 285.8 121.2 250.5C123.2 218.6 125.4 198.6 119.2 198.1C97.1 215.8 65.6 234.6 38.6 241.0C23.2 233.8 31.0 212.3 57.5 187.5C83.2 169.9 98.3 160.0 92.5 155.1C63.5 148.4 29.3 134.7 9.2 117.4C7.7 101.5 31.4 95.3 67.6 101.6C96.4 110.8 111.7 115.3 110.5 106.0L129.2 126.8C135.4 136.8 122.2 129.7 91.7 115.8C60.4 108.8 37.9 111.9 36.5 123.9C61.0 139.0 95.4 149.3 120.5 153.1C129.8 154.6 114.0 161.3 83.5 177.3C59.5 197.7 50.0 216.4 60.4 223.5C88.5 212.2 117.6 191.2 134.9 174.9C140.5 170.5 135.3 189.0 129.2 223.7C131.0 254.4 140.4 271.3 152.3 265.1C160.4 234.7 161.4 199.0 159.4 177.0Z" fill="url(#g4)"/>
  <path fill-rule="evenodd" clip-rule="evenodd" d="M56.4 256.1C37.9 253.8 39.8 233.0 60.6 204.6C83.9 182.2 99.6 168.7 96.2 164.0C68.5 162.0 32.6 154.6 7.9 141.0C0.7 125.3 20.4 114.5 56.4 114.0C87.5 118.6 106.0 121.8 105.7 114.8C89.2 90.5 73.2 57.4 69.8 30.7C79.0 17.2 100.4 28.1 122.9 57.0C138.0 83.6 146.3 98.0 151.7 91.1C161.0 61.7 177.6 29.0 196.3 11.5L187.7 38.1C170.8 60.2 157.4 93.5 151.4 119.1C149.1 129.9 144.0 115.0 130.9 83.9C112.6 57.7 94.2 45.4 85.5 53.9C93.7 82.0 112.1 112.9 127.6 132.3C132.8 139.2 116.0 133.1 82.5 124.2C51.2 123.1 32.2 130.7 35.9 142.9C64.6 153.6 100.2 157.8 123.4 157.5C129.9 158.3 112.9 168.7 84.7 190.3C65.5 214.0 61.6 232.3 75.1 235.3Z" fill="url(#g5)"/>
</svg>
